<svg width="20" height="21" viewBox="0 0 20 21" fill="none" xmlns="http://www.w3.org/2000/svg">
<path fill-rule="evenodd" clip-rule="evenodd" d="M6.66667 6.33333C7.58333 6.33333 8.33333 5.58333 8.33333 4.66667C8.33333 3.75 7.58333 3 6.66667 3C5.75 3 5 3.75 5 4.66667C5 5.58333 5.75 6.33333 6.66667 6.33333ZM8.33333 10.5C8.33333 11.4167 7.58333 12.1667 6.66667 12.1667C5.75 12.1667 5 11.4167 5 10.5C5 9.58333 5.75 8.83333 6.66667 8.83333C7.58333 8.83333 8.33333 9.58333 8.33333 10.5ZM5 16.3333C5 15.4167 5.75 14.6667 6.66667 14.6667C7.58333 14.6667 8.33333 15.4167 8.33333 16.3333C8.33333 17.25 7.58333 18 6.66667 18C5.75 18 5 17.25 5 16.3333Z" fill="#4F4F4F"/>
<mask id="mask0_26_2688" style="mask-type:alpha" maskUnits="userSpaceOnUse" x="11" y="3" width="4" height="15">
<path fill-rule="evenodd" clip-rule="evenodd" d="M13.3334 6.33333C14.2501 6.33333 15.0001 5.58333 15.0001 4.66667C15.0001 3.75 14.2501 3 13.3334 3C12.4167 3 11.6667 3.75 11.6667 4.66667C11.6667 5.58333 12.4167 6.33333 13.3334 6.33333ZM15.0001 10.5C15.0001 11.4167 14.2501 12.1667 13.3334 12.1667C12.4167 12.1667 11.6667 11.4167 11.6667 10.5C11.6667 9.58333 12.4167 8.83333 13.3334 8.83333C14.2501 8.83333 15.0001 9.58333 15.0001 10.5ZM11.6667 16.3333C11.6667 15.4167 12.4167 14.6667 13.3334 14.6667C14.2501 14.6667 15.0001 15.4167 15.0001 16.3333C15.0001 17.25 14.2501 18 13.3334 18C12.4167 18 11.6667 17.25 11.6667 16.3333Z" fill="white"/>
</mask>
<g mask="url(#mask0_26_2688)">
<rect y="0.5" width="20" height="20" fill="#4F4F4F"/>
</g>
</svg>
