<svg width="20" height="21" viewBox="0 0 20 21" fill="none" xmlns="http://www.w3.org/2000/svg">
<path d="M13.4761 18.3325C12.5551 18.6663 11.6341 18.8333 10.7132 18.8333C7.28039 18.8333 4.01508 16.663 2.84292 13.2407C2.67547 12.8233 2.92664 12.3225 3.34527 12.1555C3.7639 11.9886 4.26626 12.239 4.43371 12.6564C5.6896 16.1622 9.45726 17.9986 12.9738 16.7465C16.4902 15.4944 18.3322 11.7382 17.0763 8.23236C16.4902 6.56292 15.2344 5.22737 13.6436 4.39265C12.0528 3.6414 10.2108 3.55793 8.53628 4.14223C7.61529 4.47612 6.69431 4.97695 6.0245 5.7282L3.59645 7.98194H6.52686C7.02921 7.98194 7.36412 8.31583 7.36412 8.81666C7.36412 9.31749 7.02921 9.65138 6.52686 9.65138H1.5033C1.41958 9.65138 1.33585 9.65138 1.33585 9.65138H1.25213L1.1684 9.56791C1.08467 9.56791 1.08467 9.48444 1.00095 9.48444C1.00095 9.48444 1.00095 9.40096 0.917222 9.40096C0.917222 9.31749 0.833496 9.31749 0.833496 9.23402C0.833496 9.15055 0.833496 9.06708 0.833496 9.06708V8.9836V3.80834C0.833496 3.30751 1.1684 2.97363 1.67076 2.97363C2.17311 2.97363 2.50801 3.30751 2.50801 3.80834V6.89681L5.01979 4.55959C5.85705 3.72487 6.94549 3.0571 8.11765 2.63974C10.2108 1.88849 12.4714 2.05543 14.4808 2.97363C16.4902 3.97529 17.9973 5.64473 18.7508 7.73153C20.1742 12.0721 17.8299 16.83 13.4761 18.3325Z" fill="black"/>
<mask id="mask0_14_1439" style="mask-type:alpha" maskUnits="userSpaceOnUse" x="0" y="2" width="20" height="17">
<path d="M13.4761 18.3325C12.5551 18.6663 11.6341 18.8333 10.7132 18.8333C7.28039 18.8333 4.01508 16.663 2.84292 13.2407C2.67547 12.8233 2.92664 12.3225 3.34527 12.1555C3.7639 11.9886 4.26626 12.239 4.43371 12.6564C5.6896 16.1622 9.45726 17.9986 12.9738 16.7465C16.4902 15.4944 18.3322 11.7382 17.0763 8.23236C16.4902 6.56292 15.2344 5.22737 13.6436 4.39265C12.0528 3.6414 10.2108 3.55793 8.53628 4.14223C7.61529 4.47612 6.69431 4.97695 6.0245 5.7282L3.59645 7.98194H6.52686C7.02921 7.98194 7.36412 8.31583 7.36412 8.81666C7.36412 9.31749 7.02921 9.65138 6.52686 9.65138H1.5033C1.41958 9.65138 1.33585 9.65138 1.33585 9.65138H1.25213L1.1684 9.56791C1.08467 9.56791 1.08467 9.48444 1.00095 9.48444C1.00095 9.48444 1.00095 9.40096 0.917222 9.40096C0.917222 9.31749 0.833496 9.31749 0.833496 9.23402C0.833496 9.15055 0.833496 9.06708 0.833496 9.06708V8.9836V3.80834C0.833496 3.30751 1.1684 2.97363 1.67076 2.97363C2.17311 2.97363 2.50801 3.30751 2.50801 3.80834V6.89681L5.01979 4.55959C5.85705 3.72487 6.94549 3.0571 8.11765 2.63974C10.2108 1.88849 12.4714 2.05543 14.4808 2.97363C16.4902 3.97529 17.9973 5.64473 18.7508 7.73153C20.1742 12.0721 17.8299 16.83 13.4761 18.3325Z" fill="white"/>
</mask>
<g mask="url(#mask0_14_1439)">
<rect y="0.5" width="20" height="20" fill="#B4B7BD"/>
</g>
</svg>
