<svg width="17" height="16" viewBox="0 0 17 16" fill="none" xmlns="http://www.w3.org/2000/svg">
<path fill-rule="evenodd" clip-rule="evenodd" d="M15.75 5.4755C16.0216 5.54206 16.2254 5.67518 16.2933 5.94141C16.3612 6.14109 16.2933 6.40733 16.0895 6.54044L12.9654 9.53559L13.7125 13.7954C13.7804 14.0616 13.6445 14.3278 13.4408 14.4609C13.305 14.5275 13.1691 14.5941 13.0333 14.5941H12.6937L8.82247 12.5973L4.95122 14.5941C4.67955 14.7272 4.40789 14.6606 4.20414 14.5275C4.00039 14.3944 3.86456 14.1282 3.93247 13.8619L4.67955 9.60215L1.55539 6.607C1.35164 6.47389 1.28372 6.20765 1.35164 5.94141C1.48747 5.67518 1.69122 5.4755 1.96289 5.4755L6.24164 4.80991L8.21122 1.01606C8.41497 0.550148 9.22997 0.550148 9.43372 1.01606L11.4033 4.87647L15.75 5.4755ZM11.5391 9.46903C11.5391 9.26936 11.607 9.06968 11.7429 8.87L14.1879 6.54044L10.86 6.07453C10.5883 6.07453 10.3846 5.94142 10.3166 5.74174L8.82247 2.81315L7.3283 5.8083C7.19247 5.94142 6.98872 6.14109 6.78497 6.14109L3.45706 6.607L5.90205 8.87C6.03789 9.06968 6.1058 9.26936 6.1058 9.46903L5.49455 12.7304L8.48288 11.1996C8.68663 11.0664 8.89038 11.0664 9.09413 11.1996L12.0825 12.7304L11.5391 9.46903Z" fill="black"/>
<mask id="mask0_11_3072" style="mask-type:alpha" maskUnits="userSpaceOnUse" x="1" y="0" width="16" height="15">
<path fill-rule="evenodd" clip-rule="evenodd" d="M15.75 5.4755C16.0216 5.54206 16.2254 5.67518 16.2933 5.94141C16.3612 6.14109 16.2933 6.40733 16.0895 6.54044L12.9654 9.53559L13.7125 13.7954C13.7804 14.0616 13.6445 14.3278 13.4408 14.4609C13.305 14.5275 13.1691 14.5941 13.0333 14.5941H12.6937L8.82247 12.5973L4.95122 14.5941C4.67955 14.7272 4.40789 14.6606 4.20414 14.5275C4.00039 14.3944 3.86456 14.1282 3.93247 13.8619L4.67955 9.60215L1.55539 6.607C1.35164 6.47389 1.28372 6.20765 1.35164 5.94141C1.48747 5.67518 1.69122 5.4755 1.96289 5.4755L6.24164 4.80991L8.21122 1.01606C8.41497 0.550148 9.22997 0.550148 9.43372 1.01606L11.4033 4.87647L15.75 5.4755ZM11.5391 9.46903C11.5391 9.26936 11.607 9.06968 11.7429 8.87L14.1879 6.54044L10.86 6.07453C10.5883 6.07453 10.3846 5.94142 10.3166 5.74174L8.82247 2.81315L7.3283 5.8083C7.19247 5.94142 6.98872 6.14109 6.78497 6.14109L3.45706 6.607L5.90205 8.87C6.03789 9.06968 6.1058 9.26936 6.1058 9.46903L5.49455 12.7304L8.48288 11.1996C8.68663 11.0664 8.89038 11.0664 9.09413 11.1996L12.0825 12.7304L11.5391 9.46903Z" fill="white"/>
</mask>
<g mask="url(#mask0_11_3072)">
<rect x="0.644531" width="16.3556" height="16" fill="#D0D2D6"/>
</g>
</svg>
